<svg fill="none" xmlns="http://www.w3.org/2000/svg" viewBox="0 0 32 32"><path d="M9.98 0h10.89l2 3.85h-7.62l4.55 11.12c.5 1.23.61 2 .61 2.78 0 3.29-3.29 5.7-5.9 5.7-2.12 0-3.4-1.23-3.4-3 .02-2.83 3.45-5.21 6.55-5.21l-1.23.7L9.98 0zm1.44 32h9.16C27.29 32 32 27.67 32 21.68c0-1.76-.64-3.88-1.47-5.35L25.79 8.1h-4.47l5.57 9.68a7.88 7.88 0 0 1 1.1 3.82c0 3.82-2.63 6.52-7.55 6.52h-8.88C6.64 28.15 4 25.42 4 21.6c0-1.36.51-2.75 1.1-3.82l5.6-9.68H6.22l-4.76 8.2A11.86 11.86 0 0 0 0 21.69C0 27.67 4.74 32 11.42 32z" fill="#F22C18"/></svg>